<svg fill="none" height="138" viewBox="0 0 138 138" width="138" xmlns="http://www.w3.org/2000/svg" xmlns:xlink="http://www.w3.org/1999/xlink"><filter id="a" color-interpolation-filters="sRGB" filterUnits="userSpaceOnUse" height="138" width="138" x="0" y="0"><feFlood flood-opacity="0" result="BackgroundImageFix"/><feColorMatrix in="SourceAlpha" result="hardAlpha" type="matrix" values="0 0 0 0 0 0 0 0 0 0 0 0 0 0 0 0 0 0 127 0"/><feOffset dy="4"/><feGaussianBlur stdDeviation="4"/><feComposite in2="hardAlpha" operator="out"/><feColorMatrix type="matrix" values="0 0 0 0 0 0 0 0 0 0 0 0 0 0 0 0 0 0 0.4 0"/><feBlend in2="BackgroundImageFix" mode="normal" result="effect1_dropShadow_403_796"/><feBlend in="SourceGraphic" in2="effect1_dropShadow_403_796" mode="normal" result="shape"/></filter><linearGradient id="b" gradientUnits="userSpaceOnUse" x1="69" x2="69" y1="4" y2="126"><stop offset="0" stop-color="#1741cc"/><stop offset="1" stop-color="#16bcdc"/></linearGradient><linearGradient id="c" gradientUnits="userSpaceOnUse" x1="69" x2="69" y1="97.168" y2="25.6836"><stop offset="0" stop-color="#fff" stop-opacity=".8"/><stop offset="1" stop-color="#fff" stop-opacity=".8"/></linearGradient><g filter="url(#a)"><path d="m69 126c33.689 0 61-27.3106 61-61s-27.311-61-61-61c-33.6894 0-61 27.3106-61 61s27.3106 61 61 61z" fill="url(#b)"/><path d="m76.1484 61.4258h-7.1484-7.1484c-13.7944 0-25.0196 11.2252-25.0196 25.0195 0 5.9127 4.81 10.7227 10.7227 10.7227h42.8906c5.9127 0 10.7227-4.81 10.7227-10.7227 0-13.7943-11.2252-25.0195-25.0196-25.0195zm10.7227-17.8711c0-9.8537-8.0141-17.8711-17.8711-17.8711s-17.8711 8.0174-17.8711 17.8711c0 9.8536 8.0141 17.8711 17.8711 17.8711s17.8711-8.0177 17.8711-17.8711z" fill="url(#c)"/></g></svg>