<svg width="481" height="221" viewBox="0 0 481 221" fill="none" xmlns="http://www.w3.org/2000/svg">
<g filter="url(#filter0_bd_499_247)">
<path d="M476.198 236.5C476.198 367.115 370.635 473 240.416 473C110.198 473 4.63525 367.115 4.63525 236.5C4.63525 105.885 110.198 0 240.416 0C370.635 0 476.198 105.885 476.198 236.5ZM110.737 236.5C110.737 308.338 168.796 366.575 240.416 366.575C312.036 366.575 370.096 308.338 370.096 236.5C370.096 164.662 312.036 106.425 240.416 106.425C168.796 106.425 110.737 164.662 110.737 236.5Z" fill="url(#paint0_linear_499_247)" fill-opacity="0.31" shape-rendering="crispEdges"/>
</g>
<defs>
<filter id="filter0_bd_499_247" x="-75.3647" y="-80" width="631.562" height="633" filterUnits="userSpaceOnUse" color-interpolation-filters="sRGB">
<feFlood flood-opacity="0" result="BackgroundImageFix"/>
<feGaussianBlur in="BackgroundImageFix" stdDeviation="40"/>
<feComposite in2="SourceAlpha" operator="in" result="effect1_backgroundBlur_499_247"/>
<feColorMatrix in="SourceAlpha" type="matrix" values="0 0 0 0 0 0 0 0 0 0 0 0 0 0 0 0 0 0 127 0" result="hardAlpha"/>
<feOffset dy="4"/>
<feGaussianBlur stdDeviation="2"/>
<feComposite in2="hardAlpha" operator="out"/>
<feColorMatrix type="matrix" values="0 0 0 0 0 0 0 0 0 0 0 0 0 0 0 0 0 0 0.25 0"/>
<feBlend mode="normal" in2="effect1_backgroundBlur_499_247" result="effect2_dropShadow_499_247"/>
<feBlend mode="normal" in="SourceGraphic" in2="effect2_dropShadow_499_247" result="shape"/>
</filter>
<linearGradient id="paint0_linear_499_247" x1="240.416" y1="6.48439e-07" x2="240.416" y2="552.464" gradientUnits="userSpaceOnUse">
<stop stop-color="#440495"/>
<stop offset="0.4" stop-color="#045897" stop-opacity="0"/>
</linearGradient>
</defs>
</svg>
