<svg width="677" height="312" viewBox="0 0 677 312" fill="none" xmlns="http://www.w3.org/2000/svg">
<g style="mix-blend-mode:screen" opacity="0.1">
<path d="M245.683 232.233C193.224 268.962 226.881 316.979 308.221 308.777C389.56 300.576 444.737 333.395 477.82 284.178C510.903 234.961 437.521 216.145 362.204 216.326C286.886 216.507 267.15 217.201 245.683 232.233Z" fill="url(#paint0_linear_1288_649)"/>
</g>
<path d="M436.561 125.177L442.746 128.874L452.018 125.177L448.869 133.527L458.072 140.251L445.912 138.239L442.746 145.164L438.219 140.251L430.763 142.251L437.119 132.655L436.561 125.177Z" fill="#EDBDAB"/>
<path d="M299.273 254.237L301.048 252.074L300.16 248.302L303.186 249.991L306.295 246.842L304.825 251.396L307.302 253.008L305.156 254.465L305.497 257.442L302.177 254.452L299.273 254.237Z" fill="#EDBDAB"/>
<path d="M122.687 225.807H10.5824L0 180.503L120.041 37.6428H184.857V177.857H214.29V225.807H184.857V270.781H122.687V225.807H122.687ZM122.687 178.186V111.718L67.4611 178.186H122.687Z" fill="url(#paint1_linear_1288_649)"/>
<path d="M584.911 225.807H472.805L462.223 180.503L582.265 37.6428H647.081V177.857H676.512V225.807H647.081V270.781H584.911V225.807ZM584.911 178.186V111.718L529.685 178.186H584.911Z" fill="url(#paint2_linear_1288_649)"/>
<path d="M309.993 42.8491C314.63 42.8491 318.389 39.0897 318.389 34.4523C318.389 29.8148 314.63 26.0554 309.993 26.0554C305.355 26.0554 301.596 29.8148 301.596 34.4523C301.596 39.0897 305.355 42.8491 309.993 42.8491Z" fill="#1F3262"/>
<path d="M397.928 42.8491C402.566 42.8491 406.325 39.0897 406.325 34.4523C406.325 29.8148 402.566 26.0554 397.928 26.0554C393.291 26.0554 389.531 29.8148 389.531 34.4523C389.531 39.0897 393.291 42.8491 397.928 42.8491Z" fill="#1F3262"/>
<path d="M283.522 87.868H291.579V66.5752H283.522C279.381 66.5752 276.024 69.9323 276.024 74.0731V80.3708C276.024 84.5117 279.381 87.868 283.522 87.868Z" fill="white"/>
<path d="M422.454 87.868H414.397V66.5752H422.454C426.595 66.5752 429.952 69.9323 429.952 74.0731V80.3708C429.952 84.5117 426.595 87.868 422.454 87.868Z" fill="white"/>
<path d="M279.636 204.352C279.172 204.227 268.214 201.181 262.844 191.664C259.647 185.998 259.097 179.403 261.209 172.06C267.978 148.527 294.385 145.006 295.506 144.868L296.631 153.885C295.752 153.998 275.037 156.863 269.943 174.572C268.53 179.484 268.805 183.733 270.759 187.197C274.222 193.334 281.925 195.557 282.002 195.578L279.636 204.352Z" fill="#BFCBEB"/>
<path d="M295.762 154.027L294.127 145.088C295.008 144.927 295.504 144.867 295.504 144.867L296.633 153.884C296.577 153.892 296.269 153.934 295.762 154.027Z" fill="#8B9AC3"/>
<path d="M270.697 200.051C269.982 199.556 269.293 199.035 268.649 198.504L274.44 191.5C274.883 191.867 275.362 192.228 275.862 192.574L270.697 200.051ZM262.914 191.783C262.46 190.992 262.054 190.167 261.705 189.334L270.086 185.824C270.292 186.314 270.532 186.8 270.8 187.268L262.914 191.783ZM260.255 180.566V180.413C260.255 179.602 260.146 178.765 260.225 177.926L269.2 178.769C269.147 179.327 269.231 179.88 269.232 180.41L260.255 180.566ZM270.499 172.86L261.959 169.753C262.244 168.971 262.56 168.19 262.9 167.433L271.191 171.155C270.941 171.71 270.708 172.284 270.499 172.86ZM274.36 165.937L267.235 160.298C267.749 159.649 268.293 159.009 268.854 158.396L275.559 164.53C275.144 164.984 274.74 165.458 274.36 165.937ZM280.267 160.415L275.034 152.985C275.69 152.523 276.373 152.071 277.065 151.641L281.862 159.358C281.318 159.698 280.781 160.053 280.267 160.415ZM287.637 156.435L284.208 148.02C284.938 147.722 285.688 147.436 286.436 147.171L289.475 155.736C288.882 155.945 288.267 156.178 287.637 156.435Z" fill="#8B9AC3"/>
<path d="M279.639 204.353C279.543 204.327 279.023 204.183 278.217 203.896L281.268 195.336C281.686 195.484 281.956 195.565 282.021 195.582L279.639 204.353Z" fill="#8B9AC3"/>
<path d="M421.234 142.827L420.618 141.443C420.66 141.424 424.743 139.608 426.426 138.555C426.838 138.297 427.225 137.012 427.536 135.979C428.071 134.199 428.625 132.358 429.99 131.745C430.643 131.452 431.379 131.491 432.174 131.86C433.311 132.388 434.068 132.953 434.737 133.451C436.14 134.496 436.982 135.129 440.458 134.466L440.74 135.954C436.813 136.701 435.556 135.951 433.832 134.665C433.193 134.188 432.532 133.695 431.537 133.233C430.964 132.968 430.698 133.088 430.611 133.127C429.876 133.456 429.383 135.097 428.986 136.416C428.524 137.952 428.124 139.28 427.229 139.839C425.456 140.949 421.406 142.751 421.234 142.827Z" fill="#BFCBEB"/>
<path d="M438.219 156H430.553L421.859 150.77L422.641 149.472L430.973 154.485H438.219V156Z" fill="#BFCBEB"/>
<path d="M296.063 161.873C302.964 161.873 308.558 156.278 308.558 149.377C308.558 142.476 302.964 136.882 296.063 136.882C289.162 136.882 283.567 142.476 283.567 149.377C283.567 156.278 289.162 161.873 296.063 161.873Z" fill="#1F3262"/>
<path d="M412.729 161.873C419.63 161.873 425.224 156.278 425.224 149.377C425.224 142.476 419.63 136.882 412.729 136.882C405.828 136.882 400.233 142.476 400.233 149.377C400.233 156.278 405.828 161.873 412.729 161.873Z" fill="#1F3262"/>
<path d="M287.774 95.023H299.357V59.4211H287.774C285.581 59.4211 283.803 61.1993 283.803 63.3932V91.0517C283.802 93.2449 285.58 95.023 287.774 95.023Z" fill="#1F3262"/>
<path d="M418.204 95.023H406.621V59.4211H418.204C420.397 59.4211 422.176 61.1993 422.176 63.3932V91.0517C422.175 93.2449 420.397 95.023 418.204 95.023Z" fill="#1F3262"/>
<path d="M315.442 243.823C315.373 243.797 308.589 241.255 305.981 240.518C305.161 240.287 304.452 240.69 303.364 241.367C301.977 242.23 300.25 243.304 297.728 242.422C293.437 240.924 292.459 235.598 292.42 235.372L293.912 235.11C293.92 235.157 294.782 239.789 298.227 240.992C300.069 241.635 301.28 240.88 302.564 240.081C303.707 239.37 304.888 238.634 306.393 239.061C309.061 239.815 315.692 242.299 315.973 242.404L315.442 243.823Z" fill="#BFCBEB"/>
<path d="M304.253 253.147L304.211 251.632C311.344 251.436 313.619 244.771 313.641 244.705L315.079 245.178C315.054 245.255 312.438 252.921 304.253 253.147Z" fill="#BFCBEB"/>
<path d="M318.699 255.031C325.6 255.031 331.195 249.437 331.195 242.536C331.195 235.635 325.6 230.041 318.699 230.041C311.798 230.041 306.204 235.635 306.204 242.536C306.204 249.437 311.798 255.031 318.699 255.031Z" fill="#1F3262"/>
<path d="M413.022 285.881C412.979 285.667 408.446 264.263 385.593 246.246L391.219 239.109C416.858 259.323 421.744 283.126 421.939 284.129L413.019 285.866L417.479 284.998L413.022 285.881Z" fill="#BFCBEB"/>
<path d="M413.022 285.882C413.021 285.875 412.887 285.214 412.551 284.051L421.281 281.529C421.734 283.093 421.92 284.027 421.939 284.128L413.02 285.868L417.48 284.999L413.022 285.882ZM410.153 277.471C409.884 276.848 409.593 276.198 409.278 275.527L417.506 271.668C417.862 272.428 418.192 273.164 418.497 273.869L410.153 277.471ZM405.936 269.227C405.58 268.625 405.206 268.014 404.816 267.396L412.5 262.543C412.936 263.234 413.353 263.916 413.752 264.588L405.936 269.227ZM400.723 261.518C400.293 260.956 399.849 260.392 399.39 259.825L406.462 254.117C406.97 254.746 407.462 255.373 407.939 255.995L400.723 261.518ZM394.643 254.438C394.151 253.926 393.647 253.413 393.13 252.902L399.525 246.446C400.097 247.011 400.654 247.579 401.198 248.145L394.643 254.438ZM387.809 248.049C387.265 247.591 386.708 247.135 386.142 246.681L391.815 239.583C392.442 240.084 393.057 240.589 393.659 241.095L387.809 248.049Z" fill="#8B9AC3"/>
<path d="M385.738 255.031C392.639 255.031 398.234 249.437 398.234 242.536C398.234 235.635 392.639 230.041 385.738 230.041C378.838 230.041 373.243 235.635 373.243 242.536C373.243 249.437 378.838 255.031 385.738 255.031Z" fill="#1F3262"/>
<path d="M338.968 217.818H367.24C372.773 217.818 377.259 213.332 377.259 207.799V203.968H328.95V207.799C328.95 213.332 333.436 217.818 338.968 217.818Z" fill="#1F3262"/>
<path d="M364.105 217.818H343.649V230.091H364.105V217.818Z" fill="#2F4B92"/>
<path d="M374.518 258.441H331.69C327.656 258.441 324.137 255.701 323.15 251.789L318.891 234.92C317.486 229.355 321.692 223.955 327.431 223.955H378.777C384.516 223.955 388.723 229.355 387.318 234.92L383.059 251.789C382.071 255.701 378.553 258.441 374.518 258.441Z" fill="url(#paint3_linear_1288_649)"/>
<path d="M364.105 116.011H343.649V128.284H364.105V116.011Z" fill="#2F4B92"/>
<path d="M338.968 128.285H367.24C372.773 128.285 377.259 132.77 377.259 138.303V142.135H328.95V138.303C328.95 132.77 333.436 128.285 338.968 128.285Z" fill="#1F3262"/>
<path d="M392.187 210.664H314.023C304.968 210.664 297.628 203.323 297.628 194.269V148.941C297.628 139.886 304.968 132.547 314.023 132.547H392.187C401.242 132.547 408.582 139.887 408.582 148.941V194.269C408.582 203.323 401.241 210.664 392.187 210.664Z" fill="url(#paint4_linear_1288_649)"/>
<path d="M375.843 120.597H330.367C323.73 120.597 318.35 115.217 318.35 108.58V106.747H387.861V108.58C387.861 115.217 382.48 120.597 375.843 120.597Z" fill="#1F3262"/>
<path d="M392.187 112.996H314.023C304.968 112.996 297.628 105.656 297.628 96.6018V51.274C297.628 42.2191 304.968 34.8794 314.023 34.8794H392.187C401.242 34.8794 408.582 42.2198 408.582 51.274V96.6018C408.582 105.657 401.241 112.996 392.187 112.996Z" fill="url(#paint5_linear_1288_649)"/>
<path d="M385.835 197.422H320.375C318.199 197.422 316.436 195.659 316.436 193.482V155.653C316.436 153.477 318.199 151.714 320.375 151.714H385.835C388.01 151.714 389.775 153.477 389.775 155.653V193.482C389.774 195.659 388.01 197.422 385.835 197.422Z" fill="#1F3262"/>
<mask id="mask0_1288_649" style="mask-type:luminance" maskUnits="userSpaceOnUse" x="316" y="151" width="74" height="47">
<path d="M385.835 197.422H320.375C318.199 197.422 316.436 195.659 316.436 193.482V155.653C316.436 153.477 318.199 151.714 320.375 151.714H385.835C388.01 151.714 389.775 153.477 389.775 155.653V193.482C389.774 195.659 388.01 197.422 385.835 197.422Z" fill="white"/>
</mask>
<g mask="url(#mask0_1288_649)">
<path d="M366.78 200.033L364.508 199.985L364.655 192.911C364.709 190.311 366.869 188.196 369.469 188.196H391.985V190.468H369.469C368.096 190.468 366.955 191.585 366.927 192.958L366.78 200.033Z" fill="#1E3B82"/>
<path d="M370.727 203.979L368.455 203.931L368.644 194.945C368.675 193.401 369.958 192.144 371.503 192.144H395.933V194.416H371.503C371.185 194.416 370.921 194.675 370.915 194.992L370.727 203.979Z" fill="#1E3B82"/>
<path d="M379.2 185.103H362.5C355.611 185.103 350.026 179.518 350.026 172.629V149.152H391.674V172.629C391.674 179.518 386.089 185.103 379.2 185.103Z" fill="url(#paint6_linear_1288_649)"/>
<path d="M379.785 169.916C379.785 169.082 379.682 168.274 379.505 167.495L381.88 165.385L379.327 160.964L376.308 161.967C375.124 160.868 373.701 160.184 372.117 159.698L371.479 156.757H366.375L365.737 159.698C364.153 160.184 362.73 160.949 361.546 162.048L358.527 161.004L355.975 165.405L358.35 167.504C358.172 168.284 358.069 169.087 358.069 169.92C358.069 170.754 358.172 171.56 358.35 172.339L355.975 174.447L358.527 178.868L361.546 177.864C362.73 178.963 364.153 180.12 365.737 180.606L366.375 184.02H371.479L372.117 180.606C373.701 180.12 375.124 179.119 376.308 178.02L379.327 178.946L381.88 174.486L379.505 172.357C379.682 171.577 379.785 170.749 379.785 169.916ZM368.927 176.087C365.519 176.087 362.756 173.324 362.756 169.916C362.756 166.507 365.519 163.745 368.927 163.745C372.336 163.745 375.099 166.507 375.099 169.916C375.099 173.324 372.335 176.087 368.927 176.087Z" fill="white"/>
<path d="M363.803 192.017C364.125 191.548 364.38 191.053 364.58 190.546L366.731 190.277L367.002 186.804L364.916 186.202C364.674 185.126 364.159 184.162 363.456 183.277L364.253 181.346L361.382 179.375L359.867 180.813C358.788 180.475 357.682 180.37 356.592 180.532L355.291 178.787L352.153 180.281L352.677 182.381C352.276 182.751 351.908 183.164 351.586 183.633C351.264 184.102 351.01 184.595 350.81 185.103L348.66 185.372L348.389 188.844L350.475 189.446C350.717 190.522 351.181 191.56 351.884 192.445L351.036 194.45L353.908 196.421L355.474 194.909C356.553 195.247 357.684 195.314 358.775 195.152L360.088 196.879L363.232 195.376L362.711 193.272C363.111 192.901 363.481 192.486 363.803 192.017ZM355.313 191.296C353.395 189.98 352.907 187.359 354.224 185.441C355.54 183.524 358.161 183.036 360.078 184.352C361.996 185.668 362.483 188.289 361.167 190.207C359.851 192.124 357.23 192.612 355.313 191.296Z" fill="#3E64C3"/>
<path d="M348.563 166.1H333.87C331.153 166.1 328.95 163.897 328.95 161.18V148.504H353.483V161.18C353.483 163.897 351.281 166.1 348.563 166.1Z" fill="#3E64C3"/>
<path d="M334.491 163.059C335.361 163.059 336.066 162.354 336.066 161.484C336.066 160.614 335.361 159.908 334.491 159.908C333.621 159.908 332.916 160.614 332.916 161.484C332.916 162.354 333.621 163.059 334.491 163.059Z" fill="#D15B2D"/>
<path d="M329.824 176.475H328.31V173.864C328.31 171.765 330.017 170.059 332.114 170.059C333.377 170.059 334.404 169.032 334.404 167.769V166.028H335.919V167.769C335.919 169.867 334.212 171.573 332.114 171.573C330.852 171.573 329.824 172.6 329.824 173.863V176.475Z" fill="#BFCBEB"/>
<path d="M338.257 166.602H336.742V177.204H338.257V166.602Z" fill="#BFCBEB"/>
<path d="M340.586 163.059C341.456 163.059 342.161 162.354 342.161 161.484C342.161 160.614 341.456 159.908 340.586 159.908C339.716 159.908 339.011 160.614 339.011 161.484C339.011 162.354 339.716 163.059 340.586 163.059Z" fill="#BFCBEB"/>
<path d="M341.75 203.594H326.543C323.906 203.594 321.769 201.456 321.769 198.82V180.862C321.769 178.225 323.906 176.088 326.543 176.088H341.75C344.387 176.088 346.524 178.226 346.524 180.862V198.82C346.524 201.456 344.387 203.594 341.75 203.594Z" fill="white"/>
<path d="M332.397 185.103H321.768V181.605H332.397C333.363 181.605 334.146 182.388 334.146 183.354C334.146 184.32 333.363 185.103 332.397 185.103Z" fill="#9D4422"/>
<path d="M332.397 193.143H321.768V189.646H332.397C333.363 189.646 334.146 190.429 334.146 191.395C334.146 192.36 333.363 193.143 332.397 193.143Z" fill="#9D4422"/>
<path d="M368.928 173.804C371.075 173.804 372.816 172.063 372.816 169.916C372.816 167.769 371.075 166.028 368.928 166.028C366.781 166.028 365.04 167.769 365.04 169.916C365.04 172.063 366.781 173.804 368.928 173.804Z" fill="#1F3262"/>
<path opacity="0.2" d="M397.528 148.504H314.788V154.94H397.528V148.504Z" fill="black"/>
</g>
<path d="M328.292 87.8679C335.193 87.8679 340.788 82.2735 340.788 75.3725C340.788 68.4715 335.193 62.8772 328.292 62.8772C321.391 62.8772 315.797 68.4715 315.797 75.3725C315.797 82.2735 321.391 87.8679 328.292 87.8679Z" fill="#1F3262"/>
<path d="M328.293 83.59C332.831 83.59 336.51 79.911 336.51 75.3727C336.51 70.8343 332.831 67.1553 328.293 67.1553C323.754 67.1553 320.075 70.8343 320.075 75.3727C320.075 79.911 323.754 83.59 328.293 83.59Z" fill="white"/>
<path d="M367.104 95.0229H339.901V104.01H367.104V95.0229Z" fill="#1F3262"/>
<path d="M382.098 84.51L368.975 71.3877C367.722 70.1344 367.722 68.1018 368.975 66.8477C370.228 65.5944 372.261 65.5944 373.515 66.8477L386.637 79.9701C387.891 81.2234 387.891 83.256 386.637 84.51C385.384 85.7641 383.352 85.7641 382.098 84.51Z" fill="#BFCBEB"/>
<path d="M373.515 84.51L386.637 71.3877C387.891 70.1344 387.891 68.1018 386.637 66.8477C385.384 65.5944 383.352 65.5944 382.098 66.8477L368.975 79.9701C367.722 81.2234 367.722 83.256 368.975 84.51C370.229 85.7641 372.262 85.7641 373.515 84.51Z" fill="#BFCBEB"/>
<path d="M308.933 29.6518L306.741 29.0566C306.803 28.8249 308.218 23.3678 304.255 22.2576C302.482 21.7609 300.623 21.8336 298.984 21.8987C296.183 22.0062 293.011 22.1327 292.005 18.6098C291.172 15.6942 294.022 14.041 296.312 12.7127C299.204 11.0346 300.133 10.2091 299.583 8.91565C298.676 6.78387 297.203 6.38403 295.644 5.96222C294.24 5.5813 292.648 5.1504 291.942 3.36016L294.055 2.52637C294.318 3.19203 294.863 3.39576 296.238 3.7691C297.967 4.23786 300.334 4.87929 301.673 8.02584C303.107 11.3973 299.838 13.2936 297.451 14.6779C295.206 15.9804 293.865 16.8536 294.189 17.9857C294.663 19.6442 295.792 19.751 298.894 19.6283C300.701 19.5571 302.749 19.4776 304.866 20.0698C309.776 21.4443 309.673 26.9384 308.933 29.6518Z" fill="#1E3B82"/>
<path d="M390.11 168.648C388.718 168.648 387.591 167.521 387.591 166.129V159.628C387.591 158.237 388.718 157.109 390.11 157.109C391.501 157.109 392.628 158.237 392.628 159.628V166.129C392.628 167.521 391.501 168.648 390.11 168.648Z" fill="#2F4B92"/>
<path d="M390.11 193.144C388.718 193.144 387.591 192.016 387.591 190.625V184.124C387.591 182.733 388.718 181.605 390.11 181.605C391.501 181.605 392.628 182.733 392.628 184.124V190.625C392.628 192.016 391.501 193.144 390.11 193.144Z" fill="#2F4B92"/>
<path d="M296.15 189.376L287.863 185.751L270.423 225.628L278.71 229.252L296.15 189.376Z" fill="white"/>
<path d="M293.591 165.235C293.591 165.235 292.407 164.627 291.328 166.058C290.25 167.489 283.919 173.056 287.77 178.545C291.621 184.035 301.563 184.757 305.511 180.866C309.013 177.415 308.27 173.743 306.251 169.23C305.243 166.977 304.704 166.925 303.628 166.81L302.956 172.164C302.64 174.676 300.363 176.468 297.848 176.184L296.976 176.086C294.423 175.798 292.594 173.484 292.903 170.934L293.591 165.235Z" fill="white"/>
<path d="M287.291 177.76C287.291 177.76 289.646 181.73 287.554 186.517L295.842 190.141C295.842 190.141 298.306 184.238 304.232 181.852L287.291 177.76Z" fill="white"/>
<path d="M275.275 225.953C271.562 224.33 267.235 226.023 265.612 229.737C263.988 233.45 265.682 237.777 269.395 239.401C273.109 241.024 277.435 239.33 279.059 235.617C280.682 231.904 278.989 227.577 275.275 225.953ZM270.841 236.093C268.955 235.268 268.095 233.07 268.919 231.184C269.744 229.297 271.942 228.437 273.828 229.262C275.715 230.087 276.575 232.284 275.75 234.171C274.926 236.057 272.728 236.917 270.841 236.093Z" fill="white"/>
<path d="M272.965 283.025L267.924 275.465C268.774 274.896 289.105 261.589 321.513 265.533L320.415 274.554C291.526 271.036 273.147 282.904 272.965 283.025Z" fill="#BFCBEB"/>
<path d="M272.965 283.025L267.923 275.465C268.008 275.407 268.804 274.88 270.234 274.098L274.591 282.073C273.532 282.652 272.971 283.021 272.965 283.025ZM280.949 279.136L277.624 270.678C278.336 270.398 279.088 270.116 279.877 269.832L282.951 278.384C282.251 278.635 281.583 278.887 280.949 279.136ZM289.768 276.317L287.553 267.502C288.31 267.312 289.088 267.127 289.887 266.95L291.856 275.822C291.142 275.98 290.446 276.145 289.768 276.317ZM298.914 274.583L297.743 265.571C298.523 265.47 299.316 265.377 300.122 265.295L301.049 274.335C300.325 274.408 299.614 274.492 298.914 274.583ZM319.722 274.472C318.996 274.389 318.278 274.316 317.567 274.251L318.384 265.201C319.164 265.271 319.953 265.352 320.749 265.442L319.722 274.472ZM308.222 273.907L308.062 264.821C308.595 264.811 309.13 264.806 309.672 264.806L310.455 264.809L310.374 273.897L309.672 273.894C309.185 273.895 308.702 273.899 308.222 273.907Z" fill="#8B9AC3"/>
<path d="M270.06 289.224C274.853 289.224 278.739 285.338 278.739 280.545C278.739 275.752 274.853 271.867 270.06 271.867C265.267 271.867 261.382 275.752 261.382 280.545C261.382 285.338 265.267 289.224 270.06 289.224Z" fill="#1F3262"/>
<path d="M416.828 294.872C421.621 294.872 425.507 290.986 425.507 286.193C425.507 281.4 421.621 277.514 416.828 277.514C412.035 277.514 408.149 281.4 408.149 286.193C408.149 290.986 412.035 294.872 416.828 294.872Z" fill="#1F3262"/>
<path d="M354.644 272.623H345.891L341.515 279.817L345.891 287.012H354.644L359.02 279.817L354.644 272.623ZM350.214 281.88C348.528 281.88 347.162 280.514 347.162 278.828C347.162 277.143 348.528 275.776 350.214 275.776C351.899 275.776 353.266 277.143 353.266 278.828C353.265 280.513 351.899 281.88 350.214 281.88Z" fill="#BFCBEB"/>
<path d="M429.434 252.094H418.955C418.143 252.094 417.479 251.43 417.479 250.618V246.712C417.479 245.9 418.143 245.236 418.955 245.236H429.434C430.246 245.236 430.91 245.9 430.91 246.712V250.618C430.909 251.43 430.246 252.094 429.434 252.094Z" fill="#2F4B92"/>
<path d="M406.606 291.477L414.586 308.423L472.343 281.227L470.379 277.054C467.057 269.999 458.644 266.972 451.589 270.294L406.606 291.477Z" fill="url(#paint7_linear_1288_649)"/>
<path d="M273.515 291.52L255.868 297.801L234.461 237.657L238.806 236.111C246.152 233.496 254.228 237.332 256.843 244.679L273.515 291.52Z" fill="url(#paint8_linear_1288_649)"/>
<path d="M285.572 214.583C292.23 214.583 297.628 209.185 297.628 202.527C297.628 195.868 292.23 190.47 285.572 190.47C278.913 190.47 273.516 195.868 273.516 202.527C273.516 209.185 278.913 214.583 285.572 214.583Z" fill="#3E64C3"/>
<path d="M292.58 6.21889C294.297 6.21889 295.69 4.82676 295.69 3.10946C295.69 1.39216 294.297 0 292.58 0C290.863 0 289.471 1.39216 289.471 3.10946C289.471 4.82676 290.863 6.21889 292.58 6.21889Z" fill="#D15B2D"/>
<path d="M447.988 265.416C449.894 265.416 451.44 263.87 451.44 261.963C451.44 260.057 449.894 258.511 447.988 258.511C446.081 258.511 444.535 260.057 444.535 261.963C444.535 263.87 446.081 265.416 447.988 265.416Z" fill="#3E64C3"/>
<defs>
<linearGradient id="paint0_linear_1288_649" x1="353.238" y1="312" x2="353.238" y2="216.325" gradientUnits="userSpaceOnUse">
<stop stop-color="#818181"/>
<stop offset="0.0985" stop-color="#C2C2C2"/>
<stop offset="0.4121" stop-color="white"/>
<stop offset="0.7167" stop-color="white"/>
<stop offset="1" stop-color="#777777"/>
</linearGradient>
<linearGradient id="paint1_linear_1288_649" x1="107.144" y1="37.6425" x2="107.144" y2="270.781" gradientUnits="userSpaceOnUse">
<stop stop-color="#7D7D7D"/>
<stop offset="0.2371" stop-color="white"/>
<stop offset="0.4612" stop-color="#DBDBDB"/>
<stop offset="1" stop-color="#797979"/>
</linearGradient>
<linearGradient id="paint2_linear_1288_649" x1="569.368" y1="37.6425" x2="569.368" y2="270.781" gradientUnits="userSpaceOnUse">
<stop stop-color="#797979"/>
<stop offset="0.2371" stop-color="white"/>
<stop offset="0.4612" stop-color="white"/>
<stop offset="1" stop-color="#656565"/>
</linearGradient>
<linearGradient id="paint3_linear_1288_649" x1="353.104" y1="223.955" x2="353.104" y2="258.441" gradientUnits="userSpaceOnUse">
<stop stop-color="#1747CD"/>
<stop offset="1" stop-color="#16B2DB"/>
</linearGradient>
<linearGradient id="paint4_linear_1288_649" x1="353.105" y1="132.547" x2="353.105" y2="210.664" gradientUnits="userSpaceOnUse">
<stop stop-color="#1747CD"/>
<stop offset="1" stop-color="#16B2DB"/>
</linearGradient>
<linearGradient id="paint5_linear_1288_649" x1="353.105" y1="34.8794" x2="353.105" y2="112.996" gradientUnits="userSpaceOnUse">
<stop stop-color="#1747CD"/>
<stop offset="1" stop-color="#16B2DB"/>
</linearGradient>
<linearGradient id="paint6_linear_1288_649" x1="350.027" y1="167.128" x2="391.674" y2="167.128" gradientUnits="userSpaceOnUse">
<stop offset="0.3867" stop-color="#294792"/>
<stop offset="1" stop-color="#153175"/>
</linearGradient>
<linearGradient id="paint7_linear_1288_649" x1="439.475" y1="268.946" x2="439.475" y2="308.423" gradientUnits="userSpaceOnUse">
<stop stop-color="#1747CD"/>
<stop offset="1" stop-color="#16B2DB"/>
</linearGradient>
<linearGradient id="paint8_linear_1288_649" x1="253.988" y1="235.29" x2="253.988" y2="297.801" gradientUnits="userSpaceOnUse">
<stop stop-color="#1747CD"/>
<stop offset="1" stop-color="#16B2DB"/>
</linearGradient>
</defs>
</svg>
