<svg fill="none" height="312" viewBox="0 0 677 312" width="677" xmlns="http://www.w3.org/2000/svg" xmlns:xlink="http://www.w3.org/1999/xlink"><linearGradient id="a" gradientUnits="userSpaceOnUse" x1="353.238" x2="353.238" y1="312" y2="216.325"><stop offset="0" stop-color="#818181"/><stop offset=".0985" stop-color="#c2c2c2"/><stop offset=".4121" stop-color="#fff"/><stop offset=".7167" stop-color="#fff"/><stop offset="1" stop-color="#777"/></linearGradient><linearGradient id="b" gradientUnits="userSpaceOnUse" x1="107.144" x2="107.144" y1="37.6425" y2="270.781"><stop offset="0" stop-color="#7d7d7d"/><stop offset=".2371" stop-color="#fff"/><stop offset=".4612" stop-color="#dbdbdb"/><stop offset="1" stop-color="#797979"/></linearGradient><linearGradient id="c" gradientUnits="userSpaceOnUse" x1="569.368" x2="569.368" y1="37.6425" y2="270.781"><stop offset="0" stop-color="#797979"/><stop offset=".2371" stop-color="#fff"/><stop offset=".4612" stop-color="#fff"/><stop offset="1" stop-color="#656565"/></linearGradient><linearGradient id="d"><stop offset="0" stop-color="#1747cd"/><stop offset="1" stop-color="#16b2db"/></linearGradient><linearGradient id="e" gradientUnits="userSpaceOnUse" x1="353.104" x2="353.104" xlink:href="#d" y1="223.955" y2="258.441"/><linearGradient id="f" gradientUnits="userSpaceOnUse" x1="353.105" x2="353.105" xlink:href="#d" y1="132.547" y2="210.664"/><linearGradient id="g" gradientUnits="userSpaceOnUse" x1="353.105" x2="353.105" xlink:href="#d" y1="34.8794" y2="112.996"/><linearGradient id="h" gradientUnits="userSpaceOnUse" x1="350.027" x2="391.674" y1="167.128" y2="167.128"><stop offset=".3867" stop-color="#294792"/><stop offset="1" stop-color="#153175"/></linearGradient><linearGradient id="i" gradientUnits="userSpaceOnUse" x1="439.475" x2="439.475" xlink:href="#d" y1="268.946" y2="308.423"/><linearGradient id="j" gradientUnits="userSpaceOnUse" x1="253.988" x2="253.988" xlink:href="#d" y1="235.29" y2="297.801"/><mask id="k" height="47" maskUnits="userSpaceOnUse" width="74" x="316" y="151"><path d="m385.835 197.422h-65.46c-2.176 0-3.939-1.763-3.939-3.94v-37.829c0-2.176 1.763-3.939 3.939-3.939h65.46c2.175 0 3.94 1.763 3.94 3.939v37.829c-.001 2.177-1.765 3.94-3.94 3.94z" fill="#fff"/></mask><path d="m245.683 232.233c-52.459 36.729-18.802 84.746 62.538 76.544 81.339-8.201 136.516 24.618 169.599-24.599s-40.299-68.033-115.616-67.852c-75.318.181-95.054.875-116.521 15.907z" fill="url(#a)" opacity=".1"/><path d="m436.561 125.177 6.185 3.697 9.272-3.697-3.149 8.35 9.203 6.724-12.16-2.012-3.166 6.925-4.527-4.913-7.456 2 6.356-9.596z" fill="#edbdab"/><path d="m299.273 254.237 1.775-2.163-.888-3.772 3.026 1.689 3.109-3.149-1.47 4.554 2.477 1.612-2.146 1.457.341 2.977-3.32-2.99z" fill="#edbdab"/><path d="m122.687 225.807h-112.1046l-10.5824-45.304 120.041-142.8602h64.816v140.2142h29.433v47.95h-29.433v44.974h-62.17zm0-47.621v-66.468l-55.2259 66.468z" fill="url(#b)"/><path d="m584.911 225.807h-112.106l-10.582-45.304 120.042-142.8602h64.816v140.2142h29.431v47.95h-29.431v44.974h-62.17zm0-47.621v-66.468l-55.226 66.468z" fill="url(#c)"/><path d="m309.993 42.8491c4.637 0 8.396-3.7594 8.396-8.3968 0-4.6375-3.759-8.3969-8.396-8.3969-4.638 0-8.397 3.7594-8.397 8.3969 0 4.6374 3.759 8.3968 8.397 8.3968z" fill="#1f3262"/><path d="m397.928 42.8491c4.638 0 8.397-3.7594 8.397-8.3968 0-4.6375-3.759-8.3969-8.397-8.3969-4.637 0-8.397 3.7594-8.397 8.3969 0 4.6374 3.76 8.3968 8.397 8.3968z" fill="#1f3262"/><path d="m283.522 87.868h8.057v-21.2928h-8.057c-4.141 0-7.498 3.3571-7.498 7.4979v6.2977c0 4.1409 3.357 7.4972 7.498 7.4972z" fill="#fff"/><path d="m422.454 87.868h-8.057v-21.2928h8.057c4.141 0 7.498 3.3571 7.498 7.4979v6.2977c0 4.1409-3.357 7.4972-7.498 7.4972z" fill="#fff"/><path d="m279.636 204.352c-.464-.125-11.422-3.171-16.792-12.688-3.197-5.666-3.747-12.261-1.635-19.604 6.769-23.533 33.176-27.054 34.297-27.192l1.125 9.017c-.879.113-21.594 2.978-26.688 20.687-1.413 4.912-1.138 9.161.816 12.625 3.463 6.137 11.166 8.36 11.243 8.381z" fill="#bfcbeb"/><g fill="#8b9ac3"><path d="m295.762 154.027-1.635-8.939c.881-.161 1.377-.221 1.377-.221l1.129 9.017c-.056.008-.364.05-.871.143z"/><path d="m270.697 200.051c-.715-.495-1.404-1.016-2.048-1.547l5.791-7.004c.443.367.922.728 1.422 1.074zm-7.783-8.268c-.454-.791-.86-1.616-1.209-2.449l8.381-3.51c.206.49.446.976.714 1.444zm-2.659-11.217v-.153c0-.811-.109-1.648-.03-2.487l8.975.843c-.053.558.031 1.111.032 1.641zm10.244-7.706-8.54-3.107c.285-.782.601-1.563.941-2.32l8.291 3.722c-.25.555-.483 1.129-.692 1.705zm3.861-6.923-7.125-5.639c.514-.649 1.058-1.289 1.619-1.902l6.705 6.134c-.415.454-.819.928-1.199 1.407zm5.907-5.522-5.233-7.43c.656-.462 1.339-.914 2.031-1.344l4.797 7.717c-.544.34-1.081.695-1.595 1.057zm7.37-3.98-3.429-8.415c.73-.298 1.48-.584 2.228-.849l3.039 8.565c-.593.209-1.208.442-1.838.699z"/><path d="m279.639 204.353c-.096-.026-.616-.17-1.422-.457l3.051-8.56c.418.148.688.229.753.246z"/></g><path d="m421.234 142.827-.616-1.384c.042-.019 4.125-1.835 5.808-2.888.412-.258.799-1.543 1.11-2.576.535-1.78 1.089-3.621 2.454-4.234.653-.293 1.389-.254 2.184.115 1.137.528 1.894 1.093 2.563 1.591 1.403 1.045 2.245 1.678 5.721 1.015l.282 1.488c-3.927.747-5.184-.003-6.908-1.289-.639-.477-1.3-.97-2.295-1.432-.573-.265-.839-.145-.926-.106-.735.329-1.228 1.97-1.625 3.289-.462 1.536-.862 2.864-1.757 3.423-1.773 1.11-5.823 2.912-5.995 2.988z" fill="#bfcbeb"/><path d="m438.219 156h-7.666l-8.694-5.23.782-1.298 8.332 5.013h7.246z" fill="#bfcbeb"/><g fill="#1f3262"><path d="m296.063 161.873c6.901 0 12.495-5.595 12.495-12.496s-5.594-12.495-12.495-12.495-12.496 5.594-12.496 12.495 5.595 12.496 12.496 12.496z"/><path d="m412.729 161.873c6.901 0 12.495-5.595 12.495-12.496s-5.594-12.495-12.495-12.495-12.496 5.594-12.496 12.495 5.595 12.496 12.496 12.496z"/><path d="m287.774 95.023h11.583v-35.6019h-11.583c-2.193 0-3.971 1.7782-3.971 3.9721v27.6585c-.001 2.1932 1.777 3.9713 3.971 3.9713z"/><path d="m418.204 95.023h-11.583v-35.6019h11.583c2.193 0 3.972 1.7782 3.972 3.9721v27.6585c-.001 2.1932-1.779 3.9713-3.972 3.9713z"/></g><path d="m315.442 243.823c-.069-.026-6.853-2.568-9.461-3.305-.82-.231-1.529.172-2.617.849-1.387.863-3.114 1.937-5.636 1.055-4.291-1.498-5.269-6.824-5.308-7.05l1.492-.262c.008.047.87 4.679 4.315 5.882 1.842.643 3.053-.112 4.337-.911 1.143-.711 2.324-1.447 3.829-1.02 2.668.754 9.299 3.238 9.58 3.343z" fill="#bfcbeb"/><path d="m304.253 253.147-.042-1.515c7.133-.196 9.408-6.861 9.43-6.927l1.438.473c-.025.077-2.641 7.743-10.826 7.969z" fill="#bfcbeb"/><path d="m318.699 255.031c6.901 0 12.496-5.594 12.496-12.495s-5.595-12.495-12.496-12.495-12.495 5.594-12.495 12.495 5.594 12.495 12.495 12.495z" fill="#1f3262"/><path d="m413.022 285.881c-.043-.214-4.576-21.618-27.429-39.635l5.626-7.137c25.639 20.214 30.525 44.017 30.72 45.02l-8.92 1.737 4.46-.868z" fill="#bfcbeb"/><path d="m413.022 285.882c-.001-.007-.135-.668-.471-1.831l8.73-2.522c.453 1.564.639 2.498.658 2.599l-8.919 1.74 4.46-.869zm-2.869-8.411c-.269-.623-.56-1.273-.875-1.944l8.228-3.859c.356.76.686 1.496.991 2.201zm-4.217-8.244c-.356-.602-.73-1.213-1.12-1.831l7.684-4.853c.436.691.853 1.373 1.252 2.045zm-5.213-7.709c-.43-.562-.874-1.126-1.333-1.693l7.072-5.708c.508.629 1 1.256 1.477 1.878zm-6.08-7.08c-.492-.512-.996-1.025-1.513-1.536l6.395-6.456c.572.565 1.129 1.133 1.673 1.699zm-6.834-6.389c-.544-.458-1.101-.914-1.667-1.368l5.673-7.098c.627.501 1.242 1.006 1.844 1.512z" fill="#8b9ac3"/><path d="m385.738 255.031c6.901 0 12.496-5.594 12.496-12.495s-5.595-12.495-12.496-12.495c-6.9 0-12.495 5.594-12.495 12.495s5.595 12.495 12.495 12.495z" fill="#1f3262"/><path d="m338.968 217.818h28.272c5.533 0 10.019-4.486 10.019-10.019v-3.831h-48.309v3.831c0 5.533 4.486 10.019 10.018 10.019z" fill="#1f3262"/><path d="m364.105 217.818h-20.456v12.273h20.456z" fill="#2f4b92"/><path d="m374.518 258.441h-42.828c-4.034 0-7.553-2.74-8.54-6.652l-4.259-16.869c-1.405-5.565 2.801-10.965 8.54-10.965h51.346c5.739 0 9.946 5.4 8.541 10.965l-4.259 16.869c-.988 3.912-4.506 6.652-8.541 6.652z" fill="url(#e)"/><path d="m364.105 116.011h-20.456v12.273h20.456z" fill="#2f4b92"/><path d="m338.968 128.285h28.272c5.533 0 10.019 4.485 10.019 10.018v3.832h-48.309v-3.832c0-5.533 4.486-10.018 10.018-10.018z" fill="#1f3262"/><path d="m392.187 210.664h-78.164c-9.055 0-16.395-7.341-16.395-16.395v-45.328c0-9.055 7.34-16.394 16.395-16.394h78.164c9.055 0 16.395 7.34 16.395 16.394v45.328c0 9.054-7.341 16.395-16.395 16.395z" fill="url(#f)"/><path d="m375.843 120.597h-45.476c-6.637 0-12.017-5.38-12.017-12.017v-1.833h69.511v1.833c0 6.637-5.381 12.017-12.018 12.017z" fill="#1f3262"/><path d="m392.187 112.996h-78.164c-9.055 0-16.395-7.34-16.395-16.3942v-45.3278c0-9.0549 7.34-16.3946 16.395-16.3946h78.164c9.055 0 16.395 7.3404 16.395 16.3946v45.3278c0 9.0552-7.341 16.3942-16.395 16.3942z" fill="url(#g)"/><path d="m385.835 197.422h-65.46c-2.176 0-3.939-1.763-3.939-3.94v-37.829c0-2.176 1.763-3.939 3.939-3.939h65.46c2.175 0 3.94 1.763 3.94 3.939v37.829c-.001 2.177-1.765 3.94-3.94 3.94z" fill="#1f3262"/><g mask="url(#k)"><path d="m366.78 200.033-2.272-.048.147-7.074c.054-2.6 2.214-4.715 4.814-4.715h22.516v2.272h-22.516c-1.373 0-2.514 1.117-2.542 2.49z" fill="#1e3b82"/><path d="m370.727 203.979-2.272-.048.189-8.986c.031-1.544 1.314-2.801 2.859-2.801h24.43v2.272h-24.43c-.318 0-.582.259-.588.576z" fill="#1e3b82"/><path d="m379.2 185.103h-16.7c-6.889 0-12.474-5.585-12.474-12.474v-23.477h41.648v23.477c0 6.889-5.585 12.474-12.474 12.474z" fill="url(#h)"/><path d="m379.785 169.916c0-.834-.103-1.642-.28-2.421l2.375-2.11-2.553-4.421-3.019 1.003c-1.184-1.099-2.607-1.783-4.191-2.269l-.638-2.941h-5.104l-.638 2.941c-1.584.486-3.007 1.251-4.191 2.35l-3.019-1.044-2.552 4.401 2.375 2.099c-.178.78-.281 1.583-.281 2.416 0 .834.103 1.64.281 2.419l-2.375 2.108 2.552 4.421 3.019-1.004c1.184 1.099 2.607 2.256 4.191 2.742l.638 3.414h5.104l.638-3.414c1.584-.486 3.007-1.487 4.191-2.586l3.019.926 2.553-4.46-2.375-2.129c.177-.78.28-1.608.28-2.441zm-10.858 6.171c-3.408 0-6.171-2.763-6.171-6.171 0-3.409 2.763-6.171 6.171-6.171 3.409 0 6.172 2.762 6.172 6.171 0 3.408-2.764 6.171-6.172 6.171z" fill="#fff"/><path d="m363.803 192.017c.322-.469.577-.964.777-1.471l2.151-.269.271-3.473-2.086-.602c-.242-1.076-.757-2.04-1.46-2.925l.797-1.931-2.871-1.971-1.515 1.438c-1.079-.338-2.185-.443-3.275-.281l-1.301-1.745-3.138 1.494.524 2.1c-.401.37-.769.783-1.091 1.252s-.576.962-.776 1.47l-2.15.269-.271 3.472 2.086.602c.242 1.076.706 2.114 1.409 2.999l-.848 2.005 2.872 1.971 1.566-1.512c1.079.338 2.21.405 3.301.243l1.313 1.727 3.144-1.503-.521-2.104c.4-.371.77-.786 1.092-1.255zm-8.49-.721c-1.918-1.316-2.406-3.937-1.089-5.855 1.316-1.917 3.937-2.405 5.854-1.089 1.918 1.316 2.405 3.937 1.089 5.855-1.316 1.917-3.937 2.405-5.854 1.089z" fill="#3e64c3"/><path d="m348.563 166.1h-14.693c-2.717 0-4.92-2.203-4.92-4.92v-12.676h24.533v12.676c0 2.717-2.202 4.92-4.92 4.92z" fill="#3e64c3"/><path d="m334.491 163.059c.87 0 1.575-.705 1.575-1.575s-.705-1.576-1.575-1.576-1.575.706-1.575 1.576.705 1.575 1.575 1.575z" fill="#d15b2d"/><g fill="#bfcbeb"><path d="m329.824 176.475h-1.514v-2.611c0-2.099 1.707-3.805 3.804-3.805 1.263 0 2.29-1.027 2.29-2.29v-1.741h1.515v1.741c0 2.098-1.707 3.804-3.805 3.804-1.262 0-2.29 1.027-2.29 2.29z"/><path d="m338.257 166.602h-1.515v10.602h1.515z"/><path d="m340.586 163.059c.87 0 1.575-.705 1.575-1.575s-.705-1.576-1.575-1.576-1.575.706-1.575 1.576.705 1.575 1.575 1.575z"/></g><path d="m341.75 203.594h-15.207c-2.637 0-4.774-2.138-4.774-4.774v-17.958c0-2.637 2.137-4.774 4.774-4.774h15.207c2.637 0 4.774 2.138 4.774 4.774v17.958c0 2.636-2.137 4.774-4.774 4.774z" fill="#fff"/><path d="m332.397 185.103h-10.629v-3.498h10.629c.966 0 1.749.783 1.749 1.749s-.783 1.749-1.749 1.749z" fill="#9d4422"/><path d="m332.397 193.143h-10.629v-3.497h10.629c.966 0 1.749.783 1.749 1.749 0 .965-.783 1.748-1.749 1.748z" fill="#9d4422"/><path d="m368.928 173.804c2.147 0 3.888-1.741 3.888-3.888s-1.741-3.888-3.888-3.888-3.888 1.741-3.888 3.888 1.741 3.888 3.888 3.888z" fill="#1f3262"/><path d="m397.528 148.504h-82.74v6.436h82.74z" fill="#000" opacity=".2"/></g><path d="m328.292 87.8679c6.901 0 12.496-5.5944 12.496-12.4954s-5.595-12.4953-12.496-12.4953-12.495 5.5943-12.495 12.4953 5.594 12.4954 12.495 12.4954z" fill="#1f3262"/><path d="m328.293 83.59c4.538 0 8.217-3.679 8.217-8.2173 0-4.5384-3.679-8.2174-8.217-8.2174-4.539 0-8.218 3.679-8.218 8.2174 0 4.5383 3.679 8.2173 8.218 8.2173z" fill="#fff"/><path d="m367.104 95.0229h-27.203v8.9871h27.203z" fill="#1f3262"/><path d="m382.098 84.51-13.123-13.1223c-1.253-1.2533-1.253-3.2859 0-4.54 1.253-1.2533 3.286-1.2533 4.54 0l13.122 13.1224c1.254 1.2533 1.254 3.2859 0 4.5399-1.253 1.2541-3.285 1.2541-4.539 0z" fill="#bfcbeb"/><path d="m373.515 84.51 13.122-13.1223c1.254-1.2533 1.254-3.2859 0-4.54-1.253-1.2533-3.285-1.2533-4.539 0l-13.123 13.1224c-1.253 1.2533-1.253 3.2859 0 4.5399 1.254 1.2541 3.287 1.2541 4.54 0z" fill="#bfcbeb"/><path d="m308.933 29.6518-2.192-.5952c.062-.2317 1.477-5.6888-2.486-6.799-1.773-.4967-3.632-.424-5.271-.3589-2.801.1075-5.973.234-6.979-3.2889-.833-2.9156 2.017-4.5688 4.307-5.8971 2.892-1.6781 3.821-2.5036 3.271-3.79705-.907-2.13178-2.38-2.53162-3.939-2.95343-1.404-.38092-2.996-.81182-3.702-2.60206l2.113-.83379c.263.66566.808.86939 2.183 1.24273 1.729.46876 4.096 1.11019 5.435 4.25674 1.434 3.37146-1.835 5.26776-4.222 6.65206-2.245 1.3025-3.586 2.1757-3.262 3.3078.474 1.6585 1.603 1.7653 4.705 1.6426 1.807-.0712 3.855-.1507 5.972.4415 4.91 1.3745 4.807 6.8686 4.067 9.582z" fill="#1e3b82"/><path d="m390.11 168.648c-1.392 0-2.519-1.127-2.519-2.519v-6.501c0-1.391 1.127-2.519 2.519-2.519 1.391 0 2.518 1.128 2.518 2.519v6.501c0 1.392-1.127 2.519-2.518 2.519z" fill="#2f4b92"/><path d="m390.11 193.144c-1.392 0-2.519-1.128-2.519-2.519v-6.501c0-1.391 1.127-2.519 2.519-2.519 1.391 0 2.518 1.128 2.518 2.519v6.501c0 1.391-1.127 2.519-2.518 2.519z" fill="#2f4b92"/><g fill="#fff"><path d="m296.15 189.376-8.287-3.625-17.44 39.877 8.287 3.624z"/><path d="m293.591 165.235s-1.184-.608-2.263.823c-1.078 1.431-7.409 6.998-3.558 12.487 3.851 5.49 13.793 6.212 17.741 2.321 3.502-3.451 2.759-7.123.74-11.636-1.008-2.253-1.547-2.305-2.623-2.42l-.672 5.354c-.316 2.512-2.593 4.304-5.108 4.02l-.872-.098c-2.553-.288-4.382-2.602-4.073-5.152z"/><path d="m287.291 177.76s2.355 3.97.263 8.757l8.288 3.624s2.464-5.903 8.39-8.289z"/><path d="m275.275 225.953c-3.713-1.623-8.04.07-9.663 3.784-1.624 3.713.07 8.04 3.783 9.664 3.714 1.623 8.04-.071 9.664-3.784 1.623-3.713-.07-8.04-3.784-9.664zm-4.434 10.14c-1.886-.825-2.746-3.023-1.922-4.909.825-1.887 3.023-2.747 4.909-1.922 1.887.825 2.747 3.022 1.922 4.909-.824 1.886-3.022 2.746-4.909 1.922z"/></g><path d="m272.965 283.025-5.041-7.56c.85-.569 21.181-13.876 53.589-9.932l-1.098 9.021c-28.889-3.518-47.268 8.35-47.45 8.471z" fill="#bfcbeb"/><path d="m272.965 283.025-5.042-7.56c.085-.058.881-.585 2.311-1.367l4.357 7.975c-1.059.579-1.62.948-1.626.952zm7.984-3.889-3.325-8.458c.712-.28 1.464-.562 2.253-.846l3.074 8.552c-.7.251-1.368.503-2.002.752zm8.819-2.819-2.215-8.815c.757-.19 1.535-.375 2.334-.552l1.969 8.872c-.714.158-1.41.323-2.088.495zm9.146-1.734-1.171-9.012c.78-.101 1.573-.194 2.379-.276l.927 9.04c-.724.073-1.435.157-2.135.248zm20.808-.111c-.726-.083-1.444-.156-2.155-.221l.817-9.05c.78.07 1.569.151 2.365.241zm-11.5-.565-.16-9.086c.533-.01 1.068-.015 1.61-.015l.783.003-.081 9.088-.702-.003c-.487.001-.97.005-1.45.013z" fill="#8b9ac3"/><path d="m270.06 289.224c4.793 0 8.679-3.886 8.679-8.679s-3.886-8.678-8.679-8.678-8.678 3.885-8.678 8.678 3.885 8.679 8.678 8.679z" fill="#1f3262"/><path d="m416.828 294.872c4.793 0 8.679-3.886 8.679-8.679s-3.886-8.679-8.679-8.679-8.679 3.886-8.679 8.679 3.886 8.679 8.679 8.679z" fill="#1f3262"/><path d="m354.644 272.623h-8.753l-4.376 7.194 4.376 7.195h8.753l4.376-7.195zm-4.43 9.257c-1.686 0-3.052-1.366-3.052-3.052 0-1.685 1.366-3.052 3.052-3.052 1.685 0 3.052 1.367 3.052 3.052-.001 1.685-1.367 3.052-3.052 3.052z" fill="#bfcbeb"/><path d="m429.434 252.094h-10.479c-.812 0-1.476-.664-1.476-1.476v-3.906c0-.812.664-1.476 1.476-1.476h10.479c.812 0 1.476.664 1.476 1.476v3.906c-.001.812-.664 1.476-1.476 1.476z" fill="#2f4b92"/><path d="m406.606 291.477 7.98 16.946 57.757-27.196-1.964-4.173c-3.322-7.055-11.735-10.082-18.79-6.76z" fill="url(#i)"/><path d="m273.515 291.52-17.647 6.281-21.407-60.144 4.345-1.546c7.346-2.615 15.422 1.221 18.037 8.568z" fill="url(#j)"/><path d="m285.572 214.583c6.658 0 12.056-5.398 12.056-12.056 0-6.659-5.398-12.057-12.056-12.057-6.659 0-12.056 5.398-12.056 12.057 0 6.658 5.397 12.056 12.056 12.056z" fill="#3e64c3"/><path d="m292.58 6.21889c1.717 0 3.11-1.39213 3.11-3.10943s-1.393-3.10946-3.11-3.10946-3.109 1.39216-3.109 3.10946 1.392 3.10943 3.109 3.10943z" fill="#d15b2d"/><path d="m447.988 265.416c1.906 0 3.452-1.546 3.452-3.453 0-1.906-1.546-3.452-3.452-3.452-1.907 0-3.453 1.546-3.453 3.452 0 1.907 1.546 3.453 3.453 3.453z" fill="#3e64c3"/></svg>